# xmcd
#
# Track frame offsets:
# 150
# 9700
# 27178
# 39523
# 54836
# 70515
# 82140
# 97808
# 110521
# 120785
# 132564
# 145108
#
# Disc length: 2131 seconds
#
# Revision: 1
# Processed by: cddbd v1.5.2PL0 Copyright (c) Steve Scherf et al.
# Submitted via: Easy CD Ripper 1.45
#
DISCID=9208510c
DTITLE=George Jones - A Collection of My Best Recollection
DYEAR=2009
DGENRE=Country
TTITLE0=The Race is On
TTITLE1=George Jones - The Love In Your Eyes
TTITLE2=George Jones - Finally Friday
TTITLE3=George Jones - I Really Don't Want to Know
TTITLE4=George Jones - I'm A Long Gone Daddy
TTITLE5=George Jones - The Window Up Above
TTITLE6=George Jones - I Don't Need Your Rockin' Chair
TTITLE7=George Jones - Achin', Breakin' Heart
TTITLE8=George Jones - Why Baby Why
TTITLE9=George Jones - Your Still on My Mind
TTITLE10=George Jones - White Lightning
TTITLE11=George Jones - He Stopped Lovin' Her Today
EXTD=
EXTT0=
EXTT1=
EXTT2=
EXTT3=
EXTT4=
EXTT5=
EXTT6=
EXTT7=
EXTT8=
EXTT9=
EXTT10=
EXTT11=
PLAYORDER=
